{"accessors":[{"bufferView":0,"componentType":5121,"count":186,"max":[127],"min":[0],"type":"SCALAR"},{"bufferView":1,"componentType":5126,"count":128,"max":[0.36271584033966064,0.439542293548584,0.36271584033966064],"min":[-0.36271584033966064,-0.2858893573284149,-0.36271584033966064],"type":"VEC3"},{"bufferView":2,"componentType":5126,"count":128,"max":[0.8909766674041748,0.4454883933067322,0.8909766674041748],"min":[-0.8909766674041748,-1.0,-0.8909766674041748],"type":"VEC3"},{"bufferView":3,"componentType":5126,"count":128,"max":[0.9900000095367432,0.989999994635582],"min":[0.01000000536441803,0.5099999904632568],"type":"VEC2"},{"bufferView":4,"componentType":5121,"count":186,"max":[127],"min":[0],"type":"SCALAR"},{"bufferView":5,"componentType":5126,"count":128,"max":[0.36271584033966064,0.439542293548584,0.36271584033966064],"min":[-0.36271584033966064,-0.2858893573284149,-0.36271584033966064],"type":"VEC3"},{"bufferView":6,"componentType":5126,"count":128,"max":[0.8909766674041748,0.4454883933067322,0.8909766674041748],"min":[-0.8909766674041748,-1.0,-0.8909766674041748],"type":"VEC3"},{"bufferView":7,"componentType":5126,"count":128,"max":[0.9900000095367432,0.989999994635582],"min":[0.01000000536441803,0.5099999904632568],"type":"VEC2"},{"bufferView":8,"componentType":5121,"count":324,"max":[167],"min":[0],"type":"SCALAR"},{"bufferView":9,"componentType":5126,"count":168,"max":[1.6838257312774658,1.6838257312774658,1.6838257312774658],"min":[-1.6838257312774658,-1.6838257312774658,-1.6838257312774658],"type":"VEC3"},{"bufferView":10,"componentType":5126,"count":168,"max":[1.0,1.0,1.0],"min":[-1.0,-1.0,-1.0],"type":"VEC3"},{"bufferView":11,"componentType":5126,"count":168,"max":[0.875,1.0],"min":[0.0,0.0],"type":"VEC2"},{"bufferView":12,"componentType":5121,"count":36,"max":[23],"min":[0],"type":"SCALAR"},{"bufferView":13,"componentType":5126,"count":24,"max":[0.28382113575935364,0.28382113575935364,0.28382113575935364],"min":[-0.28382113575935364,-0.28382113575935364,-0.28382113575935364],"type":"VEC3"},{"bufferView":14,"componentType":5126,"count":24,"max":[1.0,1.0,1.0],"min":[-1.0,-1.0,-1.0],"type":"VEC3"},{"bufferView":15,"componentType":5126,"count":24,"max":[0.875,1.0],"min":[0.125,0.0],"type":"VEC2"},{"bufferView":16,"componentType":5121,"count":36,"max":[23],"min":[0],"type":"SCALAR"},{"bufferView":17,"componentType":5126,"count":24,"max":[0.28382113575935364,0.28382113575935364,0.28382113575935364],"min":[-0.28382113575935364,-0.28382113575935364,-0.28382113575935364],"type":"VEC3"},{"bufferView":18,"componentType":5126,"count":24,"max":[1.0,1.0,1.0],"min":[-1.0,-1.0,-1.0],"type":"VEC3"},{"bufferView":19,"componentType":5126,"count":24,"max":[0.875,1.0],"min":[0.125,0.0],"type":"VEC2"},{"bufferView":20,"componentType":5121,"count":372,"max":[191],"min":[0],"type":"SCALAR"},{"bufferView":21,"componentType":5126,"count":192,"max":[0.2751046419143677,0.2751046419143677,0.2751046419143677],"min":[-0.2751046419143677,-0.2751046419143677,-0.2751046419143677],"type":"VEC3"},{"bufferView":22,"componentType":5126,"count":192,"max":[0.9951847195625305,1.0,0.9951847791671753],"min":[-0.995184600353241,-1.0,-0.9951847791671753],"type":"VEC3"},{"bufferView":23,"componentType":5126,"count":192,"max":[1.0,0.989999994635582],"min":[0.0,0.0],"type":"VEC2"},{"bufferView":24,"componentType":5121,"count":372,"max":[191],"min":[0],"type":"SCALAR"},{"bufferView":25,"componentType":5126,"count":192,"max":[0.2751046419143677,0.2751046419143677,0.2751046419143677],"min":[-0.2751046419143677,-0.2751046419143677,-0.2751046419143677],"type":"VEC3"},{"bufferView":26,"componentType":5126,"count":192,"max":[0.9951847195625305,1.0,0.9951847791671753],"min":[-0.995184600353241,-1.0,-0.9951847791671753],"type":"VEC3"},{"bufferView":27,"componentType":5126,"count":192,"max":[1.0,0.989999994635582],"min":[0.0,0.0],"type":"VEC2"},{"bufferView":28,"componentType":5123,"count":2880,"max":[1983],"min":[0],"type":"SCALAR"},{"bufferView":29,"componentType":5126,"count":1984,"max":[0.36861613392829895,0.36861616373062134,0.36861589550971985],"min":[-0.3686157763004303,-0.36861616373062134,-0.3686162829399109],"type":"VEC3"},{"bufferView":30,"componentType":5126,"count":1984,"max":[0.9904382824897766,0.99513840675354,0.9904385209083557],"min":[-0.99043869972229,-0.9951385259628296,-0.9904382824897766],"type":"VEC3"},{"bufferView":31,"componentType":5126,"count":1984,"max":[1.0,1.0],"min":[0.0,0.0],"type":"VEC2"},{"bufferView":32,"componentType":5123,"count":2880,"max":[1983],"min":[0],"type":"SCALAR"},{"bufferView":33,"componentType":5126,"count":1984,"max":[0.36861613392829895,0.36861616373062134,0.36861589550971985],"min":[-0.3686157763004303,-0.36861616373062134,-0.3686162829399109],"type":"VEC3"},{"bufferView":34,"componentType":5126,"count":1984,"max":[0.9904382824897766,0.99513840675354,0.9904385209083557],"min":[-0.99043869972229,-0.9951385259628296,-0.9904382824897766],"type":"VEC3"},{"bufferView":35,"componentType":5126,"count":1984,"max":[1.0,1.0],"min":[0.0,0.0],"type":"VEC2"}],"asset":{"generator":"Verge3D for Blender","version":"2.0"},"bufferViews":[{"buffer":0,"byteLength":186,"byteOffset":0,"target":34963},{"buffer":0,"byteLength":1536,"byteOffset":188,"target":34962},{"buffer":0,"byteLength":1536,"byteOffset":1724,"target":34962},{"buffer":0,"byteLength":1024,"byteOffset":3260,"target":34962},{"buffer":0,"byteLength":186,"byteOffset":4284,"target":34963},{"buffer":0,"byteLength":1536,"byteOffset":4472,"target":34962},{"buffer":0,"byteLength":1536,"byteOffset":6008,"target":34962},{"buffer":0,"byteLength":1024,"byteOffset":7544,"target":34962},{"buffer":0,"byteLength":324,"byteOffset":8568,"target":34963},{"buffer":0,"byteLength":2016,"byteOffset":8892,"target":34962},{"buffer":0,"byteLength":2016,"byteOffset":10908,"target":34962},{"buffer":0,"byteLength":1344,"byteOffset":12924,"target":34962},{"buffer":0,"byteLength":36,"byteOffset":14268,"target":34963},{"buffer":0,"byteLength":288,"byteOffset":14304,"target":34962},{"buffer":0,"byteLength":288,"byteOffset":14592,"target":34962},{"buffer":0,"byteLength":192,"byteOffset":14880,"target":34962},{"buffer":0,"byteLength":36,"byteOffset":15072,"target":34963},{"buffer":0,"byteLength":288,"byteOffset":15108,"target":34962},{"buffer":0,"byteLength":288,"byteOffset":15396,"target":34962},{"buffer":0,"byteLength":192,"byteOffset":15684,"target":34962},{"buffer":0,"byteLength":372,"byteOffset":15876,"target":34963},{"buffer":0,"byteLength":2304,"byteOffset":16248,"target":34962},{"buffer":0,"byteLength":2304,"byteOffset":18552,"target":34962},{"buffer":0,"byteLength":1536,"byteOffset":20856,"target":34962},{"buffer":0,"byteLength":372,"byteOffset":22392,"target":34963},{"buffer":0,"byteLength":2304,"byteOffset":22764,"target":34962},{"buffer":0,"byteLength":2304,"byteOffset":25068,"target":34962},{"buffer":0,"byteLength":1536,"byteOffset":27372,"target":34962},{"buffer":0,"byteLength":5760,"byteOffset":28908,"target":34963},{"buffer":0,"byteLength":23808,"byteOffset":34668,"target":34962},{"buffer":0,"byteLength":23808,"byteOffset":58476,"target":34962},{"buffer":0,"byteLength":15872,"byteOffset":82284,"target":34962},{"buffer":0,"byteLength":5760,"byteOffset":98156,"target":34963},{"buffer":0,"byteLength":23808,"byteOffset":103916,"target":34962},{"buffer":0,"byteLength":23808,"byteOffset":127724,"target":34962},{"buffer":0,"byteLength":15872,"byteOffset":151532,"target":34962}],"buffers":[{"byteLength":167404,"uri":"physics.bin"}],"cameras":[{"extensions":{"S8S_v3d_camera":{"controls":"NONE","enablePan":true,"moveSpeed":1.0,"rotateSpeed":1.0,"viewportFitInitialAspect":1.7777777777777777,"viewportFitType":"AUTO"}},"name":"Camera","perspective":{"aspectRatio":1.7777777777777777,"yfov":0.39959652046304894,"zfar":100.0,"znear":0.10000000149011612},"type":"perspective"}],"extensions":{"S8S_v3d_lights":{"lights":[{"color":[1.0,1.0,1.0],"decay":2,"distance":10.00000011175871,"intensity":100.0,"name":"Light","profile":"blender","shadow":{"bias":-0.0018,"cameraFar":10.00000011175871,"cameraFov":0,"cameraNear":0.05000000074505806,"enabled":true,"expBias":2.5,"mapSize":512,"radius":1.0,"slopeScaledBias":2.5},"type":"point"}]}},"extensionsUsed":["S8S_v3d_materials","S8S_v3d_camera","S8S_v3d_lights","S8S_v3d_mesh","S8S_v3d_node","S8S_v3d_scene"],"materials":[{"alphaMode":"BLEND","extensions":{"S8S_v3d_materials":{"alphaToCoverage":true,"gtaoVisible":true,"materialIndex":0,"nodeGraph":{"edges":[{"fromNode":1,"fromOutput":0,"toInput":0,"toNode":0}],"nodes":[{"inputs":[[0,0,0,0],[0,0,0,0],[0.0,0.0,0.0],0.0],"is_active_output":true,"name":"Material Output","outputs":[],"type":"OUTPUT_MATERIAL_BL"},{"inputs":[[0.800000011920929,0.800000011920929,0.800000011920929,1.0],0.0,[1.0,0.20000000298023224,0.10000000149011612],[0.800000011920929,0.800000011920929,0.800000011920929,1.0],1.399999976158142,0.0,0.0,0.5,0.0,0.5,0.0,0.0,0.0,0.5,0.0,0.029999999329447746,1.4500000476837158,0.0,0.0,[0.0,0.0,0.0,1.0],1.0,0.19083967804908752,[0.0,0.0,0.0],[0.0,0.0,0.0],[0.0,0.0,0.0]],"is_active_output":false,"name":"Principled BSDF","outputs":[[0,0,0,0]],"type":"BSDF_PRINCIPLED_BL"}]},"useCastShadows":true}},"name":"Material"},{"extensions":{"S8S_v3d_materials":{"gtaoVisible":true,"materialIndex":0,"nodeGraph":{"edges":[{"fromNode":0,"fromOutput":0,"toInput":0,"toNode":1}],"nodes":[{"inputs":[[0.6182163953781128,0.8000000715255737,0.00977296568453312,1.0],0.0,[1.0,0.20000000298023224,0.10000000149011612],[0.800000011920929,0.800000011920929,0.800000011920929,1.0],1.399999976158142,0.0,0.0,0.5,0.0,0.5,0.0,0.0,0.0,0.5,0.0,0.029999999329447746,1.4500000476837158,0.0,0.0,[0.0,0.0,0.0,1.0],1.0,1.0,[0.0,0.0,0.0],[0.0,0.0,0.0],[0.0,0.0,0.0]],"is_active_output":false,"name":"Principled BSDF","outputs":[[0,0,0,0]],"type":"BSDF_PRINCIPLED_BL"},{"inputs":[[0,0,0,0],[0,0,0,0],[0.0,0.0,0.0],0.0],"is_active_output":true,"name":"Material Output","outputs":[],"type":"OUTPUT_MATERIAL_BL"}]},"useCastShadows":true}},"name":"Material.001"},{"extensions":{"S8S_v3d_materials":{"gtaoVisible":true,"materialIndex":0,"nodeGraph":{"edges":[{"fromNode":0,"fromOutput":0,"toInput":0,"toNode":1}],"nodes":[{"inputs":[[0.8000000715255737,0.024520790204405785,0.019787730649113655,1.0],0.0,[1.0,0.20000000298023224,0.10000000149011612],[0.800000011920929,0.800000011920929,0.800000011920929,1.0],1.399999976158142,0.0,0.0,0.5,0.0,0.5,0.0,0.0,0.0,0.5,0.0,0.029999999329447746,1.4500000476837158,0.0,0.0,[0.0,0.0,0.0,1.0],1.0,1.0,[0.0,0.0,0.0],[0.0,0.0,0.0],[0.0,0.0,0.0]],"is_active_output":false,"name":"Principled BSDF","outputs":[[0,0,0,0]],"type":"BSDF_PRINCIPLED_BL"},{"inputs":[[0,0,0,0],[0,0,0,0],[0.0,0.0,0.0],0.0],"is_active_output":true,"name":"Material Output","outputs":[],"type":"OUTPUT_MATERIAL_BL"}]},"useCastShadows":true}},"name":"Material.002"},{"extensions":{"S8S_v3d_materials":{"gtaoVisible":true,"materialIndex":0,"nodeGraph":{"edges":[{"fromNode":0,"fromOutput":0,"toInput":0,"toNode":1}],"nodes":[{"inputs":[[0.0137597331777215,0.06244026869535446,0.8000000715255737,1.0],0.0,[1.0,0.20000000298023224,0.10000000149011612],[0.800000011920929,0.800000011920929,0.800000011920929,1.0],1.399999976158142,0.0,0.0,0.5,0.0,0.5,0.0,0.0,0.0,0.5,0.0,0.029999999329447746,1.4500000476837158,0.0,0.0,[0.0,0.0,0.0,1.0],1.0,1.0,[0.0,0.0,0.0],[0.0,0.0,0.0],[0.0,0.0,0.0]],"is_active_output":false,"name":"Principled BSDF","outputs":[[0,0,0,0]],"type":"BSDF_PRINCIPLED_BL"},{"inputs":[[0,0,0,0],[0,0,0,0],[0.0,0.0,0.0],0.0],"is_active_output":true,"name":"Material Output","outputs":[],"type":"OUTPUT_MATERIAL_BL"}]},"useCastShadows":true}},"name":"Material.003"},{"extensions":{"S8S_v3d_materials":{"gtaoVisible":true,"materialIndex":0,"nodeGraph":{"edges":[{"fromNode":0,"fromOutput":0,"toInput":0,"toNode":1}],"nodes":[{"inputs":[[0.0,0.8000000715255737,0.0027834002394229174,1.0],0.0,[1.0,0.20000000298023224,0.10000000149011612],[0.800000011920929,0.800000011920929,0.800000011920929,1.0],1.399999976158142,0.0,0.0,0.5,0.0,0.5,0.0,0.0,0.0,0.5,0.0,0.029999999329447746,1.4500000476837158,0.0,0.0,[0.0,0.0,0.0,1.0],1.0,1.0,[0.0,0.0,0.0],[0.0,0.0,0.0],[0.0,0.0,0.0]],"is_active_output":false,"name":"Principled BSDF","outputs":[[0,0,0,0]],"type":"BSDF_PRINCIPLED_BL"},{"inputs":[[0,0,0,0],[0,0,0,0],[0.0,0.0,0.0],0.0],"is_active_output":true,"name":"Material Output","outputs":[],"type":"OUTPUT_MATERIAL_BL"}]},"useCastShadows":true}},"name":"Material.004"},{"extensions":{"S8S_v3d_materials":{"gtaoVisible":true,"materialIndex":0,"nodeGraph":{"edges":[{"fromNode":1,"fromOutput":0,"toInput":0,"toNode":0}],"nodes":[{"inputs":[[0,0,0,0],[0,0,0,0]],"is_active_output":true,"name":"World Output","outputs":[],"type":"OUTPUT_WORLD_BL"},{"inputs":[[0.05087608844041824,0.05087608844041824,0.05087608844041824,1.0],1.0],"is_active_output":false,"name":"Background","outputs":[[0,0,0,0]],"type":"BACKGROUND_BL"}]},"useCastShadows":true}},"name":"Verge3D_Environment_World"}],"meshes":[{"extensions":{"S8S_v3d_mesh":{"colorLayers":{},"uvLayers":{"UVMap":"TEXCOORD_0"}}},"name":"Cone","primitives":[{"attributes":{"NORMAL":2,"POSITION":1,"TEXCOORD_0":3},"indices":0,"material":4,"mode":4}]},{"extensions":{"S8S_v3d_mesh":{"colorLayers":{},"uvLayers":{"UVMap":"TEXCOORD_0"}}},"name":"Cone.002","primitives":[{"attributes":{"NORMAL":6,"POSITION":5,"TEXCOORD_0":7},"indices":4,"material":4,"mode":4}]},{"extensions":{"S8S_v3d_mesh":{"colorLayers":{},"uvLayers":{"UVMap":"TEXCOORD_0"}}},"name":"Cube","primitives":[{"attributes":{"NORMAL":10,"POSITION":9,"TEXCOORD_0":11},"indices":8,"material":0,"mode":4}]},{"extensions":{"S8S_v3d_mesh":{"colorLayers":{},"uvLayers":{"UVMap":"TEXCOORD_0"}}},"name":"Cube.001","primitives":[{"attributes":{"NORMAL":14,"POSITION":13,"TEXCOORD_0":15},"indices":12,"material":3,"mode":4}]},{"extensions":{"S8S_v3d_mesh":{"colorLayers":{},"uvLayers":{"UVMap":"TEXCOORD_0"}}},"name":"Cube.002","primitives":[{"attributes":{"NORMAL":18,"POSITION":17,"TEXCOORD_0":19},"indices":16,"material":3,"mode":4}]},{"extensions":{"S8S_v3d_mesh":{"colorLayers":{},"uvLayers":{"UVMap":"TEXCOORD_0"}}},"name":"Cylinder","primitives":[{"attributes":{"NORMAL":22,"POSITION":21,"TEXCOORD_0":23},"indices":20,"material":2,"mode":4}]},{"extensions":{"S8S_v3d_mesh":{"colorLayers":{},"uvLayers":{"UVMap":"TEXCOORD_0"}}},"name":"Cylinder.001","primitives":[{"attributes":{"NORMAL":26,"POSITION":25,"TEXCOORD_0":27},"indices":24,"material":2,"mode":4}]},{"extensions":{"S8S_v3d_mesh":{"colorLayers":{},"uvLayers":{"UVMap":"TEXCOORD_0"}}},"name":"Sphere","primitives":[{"attributes":{"NORMAL":30,"POSITION":29,"TEXCOORD_0":31},"indices":28,"material":1,"mode":4}]},{"extensions":{"S8S_v3d_mesh":{"colorLayers":{},"uvLayers":{"UVMap":"TEXCOORD_0"}}},"name":"Sphere.004","primitives":[{"attributes":{"NORMAL":34,"POSITION":33,"TEXCOORD_0":35},"indices":32,"material":1,"mode":4}]}],"nodes":[{"extensions":{"S8S_v3d_node":{"frustumCulling":true,"groupNames":["Collection"],"hidden":false,"hidpiCompositing":false,"objectColor":[1.0,1.0,1.0,1.0],"objectIndex":0,"renderOrder":0,"useShadows":true}},"mesh":2,"name":"frame"},{"extensions":{"S8S_v3d_lights":{"light":0},"S8S_v3d_node":{"frustumCulling":true,"groupNames":["Collection"],"hidden":false,"hidpiCompositing":false,"objectColor":[0.0,0.0,0.0,0.0],"objectIndex":0,"renderOrder":0}},"name":"Light","rotation":[-0.28416627645492554,0.7269423007965088,0.34203392267227173,0.5232754945755005],"scale":[1.0,0.9999998807907104,0.9999998807907104],"translation":[0.08051002025604248,0.017040729522705078,-0.0072451867163181305]},{"extensions":{"S8S_v3d_node":{"frustumCulling":true,"groupNames":["Collection"],"hidden":false,"hidpiCompositing":false,"objectColor":[1.0,1.0,1.0,1.0],"objectIndex":0,"renderOrder":0,"useShadows":true}},"mesh":3,"name":"Cube.001","translation":[-0.31295859813690186,-0.4201798737049103,-0.8366008996963501]},{"extensions":{"S8S_v3d_node":{"frustumCulling":true,"groupNames":["Collection"],"hidden":false,"hidpiCompositing":false,"objectColor":[1.0,1.0,1.0,1.0],"objectIndex":0,"renderOrder":0,"useShadows":true}},"mesh":5,"name":"Cylinder","translation":[0.9476723670959473,-0.07704947888851166,0.02220754139125347]},{"extensions":{"S8S_v3d_node":{"frustumCulling":true,"groupNames":["Collection"],"hidden":false,"hidpiCompositing":false,"objectColor":[1.0,1.0,1.0,1.0],"objectIndex":0,"renderOrder":0,"useShadows":true}},"mesh":8,"name":"Sphere.001","rotation":[3.780858615011658e-15,3.417331484456554e-08,0.9983865022659302,0.056783560663461685],"translation":[0.5350656509399414,-0.40452146530151367,0.5857922434806824]},{"extensions":{"S8S_v3d_node":{"frustumCulling":true,"groupNames":["Collection"],"hidden":false,"hidpiCompositing":false,"objectColor":[1.0,1.0,1.0,1.0],"objectIndex":0,"renderOrder":0,"useShadows":true}},"mesh":1,"name":"Cone.001","rotation":[3.780858615011658e-15,3.417331484456554e-08,0.9983865022659302,0.056783560663461685],"translation":[-0.057545602321624756,0.006849139928817749,0.7428395748138428]},{"extensions":{"S8S_v3d_node":{"frustumCulling":true,"groupNames":["Collection"],"hidden":false,"hidpiCompositing":false,"objectColor":[1.0,1.0,1.0,1.0],"objectIndex":0,"renderOrder":0,"useShadows":true}},"mesh":6,"name":"Cylinder.001","rotation":[3.780858615011658e-15,3.417331484456554e-08,0.9983865022659302,0.056783560663461685],"translation":[-0.5019673109054565,0.38248831033706665,-0.4008556306362152]},{"extensions":{"S8S_v3d_node":{"frustumCulling":true,"groupNames":["Collection"],"hidden":false,"hidpiCompositing":false,"objectColor":[1.0,1.0,1.0,1.0],"objectIndex":0,"renderOrder":0,"useShadows":true}},"mesh":7,"name":"Sphere","translation":[-0.5896185636520386,0.7892917990684509,0.4277883470058441]},{"camera":0,"extensions":{"S8S_v3d_node":{"frustumCulling":true,"groupNames":["Collection"],"hidden":false,"hidpiCompositing":false,"objectColor":[0.0,0.0,0.0,0.0],"objectIndex":0,"renderOrder":0}},"name":"Camera","rotation":[0.0,1.1102230246251565e-16,-1.1102230246251565e-16,1.0],"scale":[1.0,0.9999998807907104,0.9999998807907104],"translation":[1.6094754669233923e-15,-3.1683902079748805e-07,12.163354873657227]},{"extensions":{"S8S_v3d_node":{"frustumCulling":true,"groupNames":["Collection"],"hidden":false,"hidpiCompositing":false,"objectColor":[1.0,1.0,1.0,1.0],"objectIndex":0,"renderOrder":0,"useShadows":true}},"mesh":0,"name":"Cone","translation":[-0.8187352418899536,-0.3233599066734314,-0.041797518730163574]},{"extensions":{"S8S_v3d_node":{"frustumCulling":true,"groupNames":["Collection"],"hidden":false,"hidpiCompositing":false,"objectColor":[1.0,1.0,1.0,1.0],"objectIndex":0,"renderOrder":0,"useShadows":true}},"mesh":4,"name":"Cube.002","rotation":[3.780858615011658e-15,3.417331484456554e-08,0.9983865022659302,0.056783560663461685],"translation":[0.3516342043876648,0.40185853838920593,-0.5916494131088257]}],"scene":0,"scenes":[{"extensions":{"S8S_v3d_scene":{"aaMethod":"AUTO","iblEnvironmentMode":"PMREM","physicallyCorrectLights":true,"pmremMaxTileSize":512,"shadowMap":{"esmDistanceScale":1.0,"renderReverseSided":false,"renderSingleSided":true,"type":"PCFPOISSON"},"toneMapping":{"type":"filmicBlender"},"worldMaterial":5}},"extras":{"animFrameRate":24,"coordSystem":"Z_UP_RIGHT"},"name":"Scene","nodes":[0,1,8,7,9,2,3,4,5,10,6]}]}
